<svg width="120" height="89" viewBox="0 0 120 89" fill="none" xmlns="http://www.w3.org/2000/svg">
<rect x="34.4497" width="13.3639" height="13.3639" rx="2" transform="rotate(45 34.4497 0)" fill="white"/>
<path d="M6.59741 89C3.28496 89 0.888085 85.8374 1.7836 82.6483L11.1333 49.352C11.3816 48.4679 11.3816 47.5326 11.1333 46.6485L1.7836 13.3523C0.888084 10.1632 3.28496 7.00052 6.5974 7.00051L104.286 7.00046C106.508 7.00045 108.464 8.4668 109.086 10.5998L119.591 46.5996C119.858 47.5143 119.858 48.4862 119.591 49.4009L109.086 85.4006C108.464 87.5336 106.508 89 104.286 89L6.59741 89Z" fill="white"/>
<path d="M37.9834 64.6494C40.895 64.6494 43.2553 62.289 43.2553 59.3774C43.2553 56.4658 40.895 54.1055 37.9834 54.1055C35.0718 54.1055 32.7114 56.4658 32.7114 59.3774C32.7114 62.289 35.0718 64.6494 37.9834 64.6494Z" stroke="#37455C" stroke-width="2" stroke-miterlimit="10" stroke-linecap="round" stroke-linejoin="round"/>
<path d="M66.802 64.6494C69.7136 64.6494 72.0739 62.289 72.0739 59.3774C72.0739 56.4658 69.7136 54.1055 66.802 54.1055C63.8904 54.1055 61.53 56.4658 61.53 59.3774C61.53 62.289 63.8904 64.6494 66.802 64.6494Z" stroke="#37455C" stroke-width="2" stroke-miterlimit="10" stroke-linecap="round" stroke-linejoin="round"/>
<path d="M77.3446 64.6494C80.2562 64.6494 82.6166 62.289 82.6166 59.3774C82.6166 56.4658 80.2562 54.1055 77.3446 54.1055C74.433 54.1055 72.0727 56.4658 72.0727 59.3774C72.0727 62.289 74.433 64.6494 77.3446 64.6494Z" stroke="#37455C" stroke-width="2" stroke-miterlimit="10" stroke-linecap="round" stroke-linejoin="round"/>
<path d="M43.2553 58.2061H61.6622" stroke="#37455C" stroke-width="2" stroke-miterlimit="10" stroke-linecap="round" stroke-linejoin="round"/>
<path d="M82.6165 58.206L89.5269 55.1935V51.2795H40.7203V39.1221H31.9396L28.1814 47.8068V57.721H32.9047" stroke="#37455C" stroke-width="2" stroke-miterlimit="10" stroke-linecap="round" stroke-linejoin="round"/>
<path d="M90.1753 45.8928L39.0632 36.2716C38.3437 36.1357 37.8712 35.4437 38.0071 34.7242L38.2602 33.3763C38.3961 32.6568 39.0881 32.1843 39.8076 32.3202L90.9197 41.9413C91.6392 42.0773 92.1118 42.7693 91.9771 43.4888L91.724 44.8367C91.5868 45.5549 90.8948 46.0275 90.1753 45.8928Z" stroke="#37455C" stroke-width="2" stroke-miterlimit="10" stroke-linecap="round" stroke-linejoin="round"/>
<path d="M60.939 40.3887V51.2792" stroke="#37455C" stroke-width="2" stroke-miterlimit="10" stroke-linecap="round" stroke-linejoin="round"/>
<path d="M40.7203 43.2949H44.0621L46.8502 51.2789" stroke="#37455C" stroke-width="2" stroke-miterlimit="10" stroke-linecap="round" stroke-linejoin="round"/>
<path d="M60.939 44.334H65.8144L67.9965 51.2793" stroke="#37455C" stroke-width="2" stroke-miterlimit="10" stroke-linecap="round" stroke-linejoin="round"/>
<path d="M89.5269 51.2794V45.7705" stroke="#37455C" stroke-width="2" stroke-miterlimit="10" stroke-linecap="round" stroke-linejoin="round"/>
<path d="M83.7388 51.279V44.6279" stroke="#37455C" stroke-width="2" stroke-miterlimit="10" stroke-linecap="round" stroke-linejoin="round"/>
<path d="M80.5168 51.2787V47.2861H71.0614V51.2787" stroke="#37455C" stroke-width="2" stroke-miterlimit="10" stroke-linecap="round" stroke-linejoin="round"/>
<path d="M46.8501 51.2793V58.2059" stroke="#37455C" stroke-width="2" stroke-miterlimit="10" stroke-linecap="round" stroke-linejoin="round"/>
<path d="M55.6833 51.2793V58.2059" stroke="#37455C" stroke-width="2" stroke-miterlimit="10" stroke-linecap="round" stroke-linejoin="round"/>
</svg>
