<svg width="120" height="89" viewBox="0 0 120 89" fill="none" xmlns="http://www.w3.org/2000/svg">
<rect x="34.4497" width="13.3639" height="13.3639" rx="2" transform="rotate(45 34.4497 0)" fill="white"/>
<path d="M6.59741 89C3.28497 89 0.888089 85.8374 1.7836 82.6483L11.1333 49.352C11.3816 48.4679 11.3816 47.5326 11.1333 46.6485L1.7836 13.3523C0.888087 10.1632 3.28496 7.00052 6.59741 7.00052L104.286 7.00045C106.508 7.00045 108.464 8.4668 109.086 10.5998L119.591 46.5996C119.858 47.5143 119.858 48.4862 119.591 49.4009L109.086 85.4006C108.464 87.5336 106.508 89 104.286 89L6.59741 89Z" fill="white"/>
<path d="M50.6085 41.6036C50.6085 41.6036 51.4621 36.7712 53.5933 36.6952C55.7245 36.6192 58.3748 39.2268 59.2953 37.7689C60.2174 36.311 61.8876 35.6975 65.2859 35.3147C68.6842 34.9305 67.2446 32.3229 69.3758 33.1672C71.5069 34.0116 75.4808 40.2245 75.6533 41.6049" stroke="#37455C" stroke-width="2" stroke-miterlimit="10" stroke-linecap="round" stroke-linejoin="round"/>
<path d="M73.0461 60.0223C73.0461 61.8779 74.7147 63.3806 76.7731 63.3806C78.8314 63.3806 80.5001 61.8765 80.5001 60.0223C80.5001 58.1681 78.8314 56.6641 76.7731 56.6641C74.7133 56.6641 73.0461 58.1681 73.0461 60.0223Z" stroke="#37455C" stroke-width="2" stroke-miterlimit="10" stroke-linecap="round" stroke-linejoin="round"/>
<path d="M40 41.6045H44.1746L51.7164 63.3829H54.264L57.8898 56.061" stroke="#37455C" stroke-width="2" stroke-linecap="round" stroke-linejoin="round"/>
<path d="M47.5847 51.4519C47.5847 51.4519 70.1549 67.2876 79.1972 44.2861H45.104" stroke="#37455C" stroke-width="2" stroke-miterlimit="10" stroke-linecap="round" stroke-linejoin="round"/>
</svg>
