<svg width="120" height="89" viewBox="0 0 120 89" fill="none" xmlns="http://www.w3.org/2000/svg">
<path d="M6.59741 82C3.28496 82 0.888085 78.8374 1.7836 75.6483L11.1333 42.352C11.3816 41.4679 11.3816 40.5326 11.1333 39.6485L1.7836 6.35227C0.888084 3.16317 3.28496 0.000516799 6.5974 0.000514783L104.286 0.000455323C106.508 0.000453971 108.464 1.4668 109.086 3.59981L119.591 39.5996C119.858 40.5143 119.858 41.4862 119.591 42.4009L109.086 78.4006C108.464 80.5336 106.508 82 104.286 82L6.59741 82Z" fill="white"/>
<rect x="32.4497" y="70" width="13.3639" height="13.3639" rx="2" transform="rotate(45 32.4497 70)" fill="white"/>
</svg>
